<?xml version="1.0" encoding="UTF-8" standalone="no"?>
<svg height="48px" viewBox="0 -960 960 960" width="48px" xmlns="http://www.w3.org/2000/svg">
   <path fill="#0a79c8"
      d="m691-82-5-48q-23-7-42-18.5T 611 -173l-42 20-35-54 38-30q-5-19-5-41.5t5-41.5l-38-30 35-55 42 20q14-12 33-23.5t42-18.5l5-49h60l6 49q23 7 42 18.5t33 23.5l42-20 35 55-38 30q5 19 5 41.5t-5 41.5l38 30-35 54-42-20q-14 13-33 24.5T757-130l-6 48h-60Zm103-124q29-29 29-73t-29-73q-29-29-73-29t-73 29q-29 29-29 73t29 73q29 29 73 29t73-29Z"
      id="path1" />
   <path fill="#ffcf49"
      d="M 139.96094 -800 C 123.96094 -800 109.96875 -793.81771 97.96875 -781.48438 C 85.96875 -769.15104 79.960938 -755.33333 79.960938 -740 L 79.960938 -220 C 79.960938 -204.66667 85.96875 -190.84896 97.96875 -178.51562 C 109.96875 -166.18229 123.96094 -160 139.96094 -160 L 489.96094 -160 C 480.6276 -178.66667 473.47656 -198.00781 468.47656 -218.00781 C 463.47656 -238.00781 460.97656 -258.66667 460.97656 -280 C 460.97656 -350 485.6276 -410.83333 534.96094 -462.5 C 584.29427 -514.16667 646.3099 -540 720.97656 -540 C 750.3099 -540 778.29427 -535.34896 804.96094 -526.01562 C 831.6276 -516.68229 856.6276 -503.34896 879.96094 -486.01562 L 879.96094 -680 C 879.96094 -695.33333 873.81771 -709.15104 861.48438 -721.48438 C 849.15104 -733.81771 835.29427 -740 819.96094 -740 L 480.97656 -740 L 420.97656 -800 L 139.96094 -800 z "
      id="path2" />
</svg>